# xmcd
#
# Track frame offsets: 
#        150
#        14979
#        30165
#        50150
#        60895
#        78619
#        93264
#        106081
#        117227
#        133055
#        149673
#        162747
#        174772
#        199394
#        214877
#
# Disc length: 3111 seconds
#
# Revision: 0
# Processed by: cddbd v1.5.2PL0 Copyright (c) Steve Scherf et al.
# Submitted via: ExactAudioCopy v0.95b2
#
DISCID=d80c250f
DTITLE=Лига Блюза - Живая Коллекция
DYEAR=2001
DGENRE=Blues
TTITLE0=Leather Jacket
TTITLE1=Так Получилось
TTITLE2=White Room
TTITLE3=Slippin' And Slidin'
TTITLE4=Ты Споешь "Hoochi Coochi Man"
TTITLE5=В Моем Доме Без Меня
TTITLE6=Shakin' All Over
TTITLE7=Odessa
TTITLE8=Ревность
TTITLE9=Скоро Домой
TTITLE10=Catch Up With The Blues
TTITLE11=Whole Lotta Shakin' Goin' On
TTITLE12=Я Возвращаюсь
TTITLE13=Я Отменяю Этикет
TTITLE14=Июльский Блюз
EXTD=
EXTT0=
EXTT1=
EXTT2=
EXTT3=
EXTT4=
EXTT5=
EXTT6=
EXTT7=
EXTT8=
EXTT9=
EXTT10=
EXTT11=
EXTT12=
EXTT13=
EXTT14=
PLAYORDER=
